<?xml version="1.0" standalone="no"?>
<!DOCTYPE svg PUBLIC "-//W3C//DTD SVG 20010904//EN"
 "http://www.w3.org/TR/2001/REC-SVG-20010904/DTD/svg10.dtd">
<svg version="1.0" xmlns="http://www.w3.org/2000/svg"
 width="700.000000pt" height="700.000000pt" viewBox="0 0 700.000000 700.000000"
 preserveAspectRatio="xMidYMid meet">
<metadata>
Created by potrace 1.14, written by Peter Selinger 2001-2017
</metadata>
<g transform="translate(0.000000,700.000000) scale(0.100000,-0.100000)"
fill="#000000" stroke="none">
<path d="M0 3500 l0 -3500 3500 0 3500 0 0 3500 0 3500 -3500 0 -3500 0 0
-3500z m1593 2398 c3 -13 119 -627 258 -1366 140 -739 256 -1337 258 -1330 3
7 129 621 281 1363 l275 1350 543 3 542 2 0 -90 c0 -130 68 -4067 75 -4378 l7
-262 -371 0 -370 0 -5 33 c-2 17 -23 718 -46 1557 -22 838 -42 1525 -43 1526
-1 1 -123 -694 -271 -1544 -148 -851 -271 -1553 -274 -1559 -3 -10 -79 -13
-332 -13 l-328 0 -25 132 c-13 73 -143 777 -288 1565 -145 787 -265 1430 -267
1429 -2 -3 -71 -2965 -72 -3098 l0 -28 -375 0 -375 0 0 113 c-1 202 70 4409
76 4515 l6 102 558 0 558 0 5 -22z m3947 -1988 l0 -2010 540 0 540 0 0 -355 0
-355 -1065 0 -1065 0 0 2365 0 2365 525 0 525 0 0 -2010z"/>
</g>
</svg>
